<?xml version="1.0" standalone="no"?>
<!DOCTYPE svg PUBLIC "-//W3C//DTD SVG 20010904//EN"
 "http://www.w3.org/TR/2001/REC-SVG-20010904/DTD/svg10.dtd">
<svg version="1.0" xmlns="http://www.w3.org/2000/svg"
 width="128.000000pt" height="128.000000pt" viewBox="0 0 128.000000 128.000000"
 preserveAspectRatio="xMidYMid meet">
<metadata>
Created by potrace 1.14, written by Peter Selinger 2001-2017
</metadata>
<g transform="translate(0.000000,128.000000) scale(0.100000,-0.100000)"
fill="#000000" stroke="none">
<path d="M337 1274 c-4 -4 -7 -25 -7 -46 0 -32 3 -39 18 -36 13 2 17 13 17 42
0 37 -13 55 -28 40z"/>
<path d="M184 1226 c-6 -17 22 -76 37 -76 19 0 21 29 3 59 -20 34 -32 39 -40
17z"/>
<path d="M481 1218 c-22 -23 -27 -53 -12 -63 11 -6 51 41 51 61 0 24 -19 25
-39 2z"/>
<path d="M305 1131 c-46 -11 -72 -28 -99 -64 -54 -72 -51 -164 8 -233 22 -27
35 -53 39 -84 8 -58 34 -80 97 -80 62 0 88 21 95 79 3 29 15 55 36 78 38 44
49 72 49 129 0 118 -110 203 -225 175z"/>
<path d="M71 1116 c-9 -11 -4 -19 24 -36 25 -16 40 -19 47 -12 14 14 3 29 -32
47 -24 12 -30 12 -39 1z"/>
<path d="M582 1110 c-30 -19 -44 -50 -22 -50 22 0 70 31 70 45 0 23 -15 25
-48 5z"/>
<path d="M1185 1107 c-27 -20 -41 -22 -140 -21 -60 1 -130 3 -155 6 -70 8
-145 -27 -168 -77 -7 -15 -22 -24 -44 -28 -47 -7 -80 -15 -87 -23 -3 -3 -4
-32 -3 -65 2 -33 0 -59 -5 -58 -41 7 -44 -20 -4 -44 23 -14 70 -94 59 -101 -2
-1 -15 -7 -30 -14 -54 -23 -46 -107 12 -118 18 -4 30 -13 30 -23 1 -24 35 -95
61 -125 13 -15 40 -37 59 -48 48 -29 57 -42 52 -76 -4 -29 -5 -30 -80 -34 -86
-5 -115 -18 -137 -63 -14 -28 -15 -22 -14 103 0 73 -2 136 -6 140 -4 4 -28 7
-53 7 l-47 0 -1 58 c-2 63 -6 72 -27 64 -10 -4 -13 -62 -15 -286 l-3 -281 397
0 396 0 -4 93 c-6 137 -26 158 -155 165 l-82 4 1 38 c0 32 5 40 34 53 49 24
107 90 125 144 12 36 24 52 47 62 64 29 64 108 1 130 -27 9 -29 14 -29 64 0
44 5 59 25 81 41 45 57 85 58 150 1 76 -15 147 -32 146 -3 0 -19 -11 -36 -23z"/>
<path d="M60 973 c-41 -12 -42 -13 -32 -26 15 -18 67 -20 81 -3 17 21 -14 39
-49 29z"/>
<path d="M98 832 c-28 -17 -38 -52 -15 -52 21 0 71 46 63 58 -9 16 -16 15 -48
-6z"/>
</g>
</svg>
